<svg width="215" height="26" viewBox="0 0 215 26" fill="none" xmlns="http://www.w3.org/2000/svg">
<path d="M13.7116 8.72234C13.7116 8.14894 13.5109 7.86224 13.1095 7.86224C12.9566 7.86224 12.775 7.90047 12.5648 7.97692C12.3545 8.05337 12.1538 8.12027 11.9627 8.17761C11.2555 8.55988 10.7012 8.98037 10.2998 9.43909C9.91756 9.8787 9.52574 10.3756 9.12436 10.9299C8.72298 11.4842 8.37894 12.0767 8.09224 12.7075C7.80554 13.3382 7.58574 13.9307 7.43283 14.485C6.87854 16.5301 7.08879 17.9063 8.06357 18.6135C8.46495 18.9002 8.88544 19.0435 9.32505 19.0435C9.78377 19.0244 10.1469 18.9289 10.4145 18.7568C10.7012 18.5848 10.9784 18.4224 11.2459 18.2694C11.5135 18.1165 11.8193 18.0114 12.1634 17.9541C12.5265 17.8776 12.9661 17.9254 13.4822 18.0974C14.0174 18.2503 14.3041 18.4606 14.3423 18.7282C14.3805 18.9958 14.3805 19.2729 14.3423 19.5596C14.3041 19.8463 14.2945 20.1043 14.3136 20.3337C14.3519 20.563 14.5621 20.7064 14.9444 20.7637C15.3075 21.2225 15.0782 21.7767 14.2563 22.4266C14.046 22.5986 13.8454 22.7611 13.6542 22.914C12.0105 23.9652 10.2616 24.5482 8.40761 24.6629C7.2417 24.7393 5.99933 24.5291 4.68051 24.0321C2.71184 23.2867 1.60326 21.6143 1.35479 19.0149C1.02986 16.6066 1.33568 14.1123 2.27223 11.532C3.05588 9.35308 4.2409 7.33662 5.82731 5.48263C7.26081 3.78154 8.6752 2.67297 10.0705 2.15691C11.7333 1.29681 13.53 0.962326 15.4604 1.15346C17.5056 1.42105 18.8435 2.2907 19.4742 3.76243C20.105 5.23416 19.9998 7.00214 19.1589 9.06638C18.8722 9.79269 18.3274 10.3661 17.5247 10.7866C16.8366 11.1688 16.0912 11.36 15.2884 11.36C14.4857 11.36 13.9696 11.1115 13.7402 10.6146C13.5109 10.0985 13.5013 9.46776 13.7116 8.72234ZM27.6808 2.24292V2.30026C27.6808 2.31937 27.6808 2.32893 27.6808 2.32893C27.6999 2.32893 27.7095 2.33849 27.7095 2.3576V2.41494H27.7381L27.9102 2.87366C28.1013 3.42795 27.6043 5.14815 26.4193 8.03426C25.1578 11.1115 24.5749 13.5102 24.6704 15.2304C24.8807 16.4537 25.9033 15.4693 27.7381 12.2774C29.1907 9.79269 30.5956 7.06904 31.9526 4.10647C32.1246 3.70509 32.3062 3.29415 32.4974 2.87366C32.6885 2.43405 32.9274 2.0709 33.2141 1.7842C33.8448 1.09612 34.6094 0.914542 35.5077 1.23947C35.8135 0.876315 36.1671 0.627842 36.5685 0.494049C36.989 0.360255 37.3808 0.331585 37.744 0.408039C38.1262 0.484492 38.4512 0.666069 38.7187 0.952768C38.9863 1.22036 39.1297 1.58351 39.1488 2.04223C39.2061 2.4245 39.0054 3.33238 38.5467 4.76588C38.1071 6.19938 37.6962 7.50864 37.3139 8.69367C36.9316 9.8787 36.5398 11.1688 36.1384 12.5641C35.1637 15.8707 34.3896 18.9862 33.8162 21.9105C33.7971 22.5222 33.5295 23.0287 33.0134 23.4301C32.5165 23.8314 31.9526 24.0895 31.3219 24.2041C30.7103 24.3379 30.1273 24.3188 29.573 24.1468C28.904 23.9557 28.5505 23.4778 28.5122 22.7133C28.5122 22.5031 28.5027 22.2928 28.4836 22.0826C28.5218 22.7324 28.0535 23.2867 27.0787 23.7454C26.8111 23.8792 26.5627 24.0035 26.3333 24.1181C24.9954 24.5195 23.5905 24.4335 22.1188 23.8601C21.4307 23.5734 20.8096 23.1911 20.2553 22.7133C19.7201 22.2164 19.3474 21.6334 19.1371 20.9644C18.4682 18.8237 18.5924 16.0141 19.5098 12.5354C19.8921 11.0446 20.3604 9.592 20.9147 8.17761C21.469 6.76322 21.8703 5.74066 22.1188 5.10992C22.3864 4.47918 22.5775 4.04913 22.6922 3.81977C22.8069 3.5713 22.9311 3.33238 23.0649 3.10302C23.3899 2.45317 23.667 2.01356 23.8964 1.7842L24.2404 1.46883C24.2786 1.4306 24.3168 1.41149 24.3551 1.41149C24.3933 1.39238 24.4411 1.36371 24.4984 1.32548C24.6513 1.22991 24.8138 1.16302 24.9858 1.12479L25.3872 1.03878H25.5592C26.1135 0.962326 26.5913 1.07701 26.9927 1.38282C26.9927 1.40193 27.0118 1.41149 27.0501 1.41149L27.2794 1.61218L27.3654 1.69819L27.4514 1.81287C27.4514 1.83198 27.4514 1.84154 27.4514 1.84154C27.4705 1.84154 27.4801 1.8511 27.4801 1.87021L27.5088 1.89888V1.95622C27.5279 1.95622 27.5374 1.96578 27.5374 1.98489V2.01356C27.5566 2.03267 27.5757 2.04223 27.5948 2.04223V2.0709C27.5948 2.09001 27.5948 2.09957 27.5948 2.09957C27.6139 2.09957 27.6235 2.10913 27.6235 2.12824C27.6235 2.12824 27.633 2.1378 27.6521 2.15691V2.18558C27.6521 2.20469 27.6617 2.22381 27.6808 2.24292ZM28.4549 21.3371V21.2511C28.4358 21.2702 28.4262 21.3467 28.4262 21.4805C28.4262 21.4231 28.4358 21.3849 28.4549 21.3658V21.3371ZM42.8062 24.6629C41.8315 24.7011 40.9331 24.5769 40.1113 24.2902C39.3085 24.0226 38.6491 23.6499 38.133 23.172C37.6361 22.6942 37.3207 22.1399 37.1869 21.5092C37.0531 20.8593 37.1678 20.1999 37.531 19.5309C38.0279 18.7282 39.0218 18.4893 40.5126 18.8142C41.6403 19.0435 42.4144 19.1678 42.8349 19.1869C43.2745 19.206 43.6472 19.1487 43.953 19.0149C45.3483 18.5561 46.132 18.0592 46.304 17.524C46.4187 17.1226 46.1702 16.6544 45.5586 16.1192C45.3101 15.8898 45.0329 15.6605 44.7271 15.4311C44.4213 15.2018 44.1633 14.9724 43.953 14.743C42.9974 14.0358 42.2424 13.2235 41.6881 12.3061C41.1529 11.3695 40.9331 10.3565 41.0287 9.26707C41.1243 8.17761 41.3058 7.27928 41.5734 6.57209C41.841 5.84578 42.1755 5.20549 42.5769 4.6512C43.2841 3.67642 44.2015 2.88322 45.3292 2.27159C46.6289 1.60262 47.6706 1.17257 48.4542 0.98144C50.0024 0.6374 51.5697 0.608729 53.1561 0.895429C53.6913 0.990996 54.15 1.17257 54.5323 1.44016C54.9145 1.70775 55.2968 1.98489 55.6791 2.27159C56.348 2.94056 56.5105 3.61908 56.1665 4.30716C56.0327 4.61297 55.8224 4.86145 55.5357 5.05258C55.249 5.24371 54.9432 5.34884 54.6183 5.36795C54.6565 5.88401 54.5609 6.26628 54.3316 6.51475C53.892 6.95436 53.1274 7.24106 52.038 7.37485C50.4707 7.26017 49.4099 7.34618 48.8556 7.63288C48.2058 7.97692 47.9668 8.72234 48.1389 9.86914C48.1771 10.1176 48.33 10.3756 48.5976 10.6432C48.8843 10.9108 49.2092 11.1975 49.5724 11.5033C49.9546 11.8091 50.3464 12.1532 50.7478 12.5354C51.1683 12.9177 51.5315 13.3573 51.8373 13.8543C52.9076 15.6127 52.8216 17.6674 51.5793 20.0183C50.6618 21.7767 49.0945 23.0956 46.8774 23.9748C45.7306 24.4335 44.3735 24.6629 42.8062 24.6629ZM64.4165 15.6605C63.9004 17.1513 63.3748 18.5848 62.8396 19.961C62.3044 21.3371 61.8553 22.3788 61.4921 23.086C61.1481 23.8123 60.8423 24.3093 60.5747 24.5769C60.3071 24.8444 60.03 25.026 59.7433 25.1216C59.4757 25.2171 59.1985 25.2554 58.9118 25.2363C58.6442 25.2171 58.3671 25.198 58.0804 25.1789C56.4749 24.9304 55.9779 23.7741 56.5896 21.7098C56.9909 20.0661 57.3159 18.7282 57.5643 17.696C57.8128 16.6448 58.0135 15.7847 58.1664 15.1157C58.3384 14.4277 58.4818 13.8638 58.5965 13.4242C58.7111 12.9655 58.8354 12.5163 58.9692 12.0767C59.103 11.6371 59.2654 11.1402 59.4566 10.5859C59.6668 10.0316 59.9344 9.29574 60.2593 8.3783C59.533 8.47387 58.8832 8.39741 58.3098 8.14894C57.4688 7.78579 57.1247 7.00214 57.2776 5.798C57.3541 5.24371 57.6504 4.72765 58.1664 4.24982C58.434 4.00135 58.7494 3.73376 59.1125 3.44706C59.8579 2.85455 61.3392 2.22381 63.5564 1.55484C65.85 0.866759 67.8186 0.541832 69.4624 0.580058C69.902 0.503606 70.3512 0.560946 70.8099 0.752079C71.2877 0.924099 71.67 1.16302 71.9567 1.46883C72.2434 1.77464 72.3867 2.10913 72.3867 2.47228C72.4058 2.83543 72.1765 3.16036 71.6987 3.44706C71.4693 3.59997 71.3068 3.858 71.2113 4.22115C71.1157 4.56519 71.0106 4.9379 70.8959 5.33928C70.7812 5.72155 70.6092 6.07514 70.3798 6.40007C70.1696 6.725 69.8255 6.91613 69.3477 6.97347C69.0992 7.10726 68.7456 7.20283 68.2869 7.26017C67.8473 7.31751 67.5511 7.36529 67.3982 7.40352C67.2644 7.42263 67.1879 7.47042 67.1688 7.54687C66.8248 8.55988 66.4138 9.79269 65.936 11.2453C65.4581 12.6788 64.9516 14.1505 64.4165 15.6605ZM60.546 8.06293C60.5078 8.06293 60.4887 8.07249 60.4887 8.0916C60.4887 8.0916 60.5078 8.0916 60.546 8.0916V8.06293ZM75.2237 4.02046C76.4279 2.6443 77.7658 1.7842 79.2375 1.44016C80.2505 1.19169 81.2062 1.22991 82.1045 1.55484C82.8117 0.809419 83.7292 0.541832 84.8568 0.752079C85.889 0.943212 86.7682 1.52617 87.4945 2.50095C87.5327 2.63474 87.6092 2.83543 87.7238 3.10302C87.8576 3.37061 87.9819 3.66686 88.0965 3.99179C88.9375 5.94135 89.0044 8.50254 88.2972 11.6753C87.418 15.6127 85.8603 18.948 83.624 21.6812C82.9359 22.5222 82.1619 23.2198 81.3018 23.7741C79.9256 24.8253 78.2819 25.2936 76.3705 25.1789C75.1855 25.1216 74.1916 24.8253 73.3888 24.2902C70.1969 22.7037 69.1552 19.3971 70.2638 14.3703C71.1812 10.2418 72.8346 6.79189 75.2237 4.02046ZM75.5678 19.2442L75.5391 19.4162L75.5964 19.7316C75.7111 20.3241 75.9022 20.7829 76.1698 21.1078C76.4374 21.4136 76.6572 21.6047 76.8292 21.6812C77.0204 21.5283 77.2115 21.3849 77.4026 21.2511C77.5938 21.1173 77.7658 20.9549 77.9187 20.7637C79.2184 19.1582 80.2314 17.0558 80.9577 14.4563C81.684 11.8569 81.9516 9.44865 81.7605 7.2315C81.0151 8.18717 80.2314 9.28618 79.4095 10.5285C78.5877 11.7709 77.9378 12.8317 77.46 13.7109C76.3705 15.756 75.7398 17.6005 75.5678 19.2442ZM99.5551 2.0709C99.7463 2.58696 99.8514 2.931 99.8705 3.10302C99.9087 3.46617 99.7749 3.77199 99.4691 4.02046C99.4691 4.03957 99.45 4.06824 99.4118 4.10647C99.5838 5.0048 99.622 5.84578 99.5265 6.62943C99.4309 7.41308 99.3067 8.16805 99.1538 8.89436C100.186 7.13593 101.008 5.84578 101.619 5.02391C102.881 3.32282 104.056 2.10913 105.146 1.38282C105.509 1.17257 105.949 1.01967 106.465 0.924099C107 0.809419 107.506 0.790306 107.984 0.86676C108.462 0.943213 108.854 1.13435 109.16 1.44016C109.485 1.74597 109.628 2.20469 109.59 2.81632C109.054 6.54342 108.481 10.022 107.869 13.2522C107.258 16.4632 106.465 19.5309 105.49 22.4553V22.5126H105.461C105.232 23.2007 104.658 23.6881 103.741 23.9748C102.843 24.2424 102.04 24.2615 101.333 24.0321C100.473 23.7836 100.081 23.3249 100.157 22.656L100.186 21.9965V21.9392C100.262 21.4805 100.301 21.1747 100.301 21.0218C100.32 20.8497 100.339 20.7255 100.358 20.6491C100.396 20.1521 100.473 19.6934 100.587 19.2729C100.721 18.8333 100.817 18.4797 100.874 18.2121C100.931 17.9445 100.989 17.696 101.046 17.4667C101.103 17.2182 101.142 17.0271 101.161 16.8933C100.434 17.8872 99.9183 18.4893 99.6125 18.6995C98.8479 19.2347 97.9592 19.4831 96.9462 19.4449C96.3154 19.4067 95.9523 19.2633 95.8567 19.0149C95.6656 18.4797 95.5318 18.1643 95.4553 18.0688C95.3406 17.9159 95.2451 17.6578 95.1686 17.2947C94.6717 19.4927 94.1843 21.0504 93.7065 21.9679C93.5153 22.331 93.3242 22.656 93.1331 22.9427C92.8655 23.5734 92.2538 24.013 91.2982 24.2615C90.3998 24.51 89.5397 24.4908 88.7179 24.2041C87.8769 23.9366 87.4755 23.4587 87.5137 22.7706C87.552 22.0826 87.6953 21.2225 87.9438 20.1903C88.1731 19.1391 88.4503 18.0305 88.7752 16.8646C89.75 13.1757 90.4381 10.777 90.8395 9.66845C91.26 8.55988 91.6135 7.69022 91.9002 7.05948C92.5883 5.58775 93.2 4.51741 93.7351 3.84844C94.3276 2.6443 95.312 1.91799 96.6881 1.66952C97.7776 1.45927 98.7333 1.59307 99.5551 2.0709ZM123.206 23.086C123.034 23.8505 122.441 24.3188 121.428 24.4908C120.492 24.6629 119.603 24.5577 118.762 24.1755C117.825 23.7741 117.415 23.2102 117.529 22.4839C117.415 21.3754 117.997 18.9671 119.278 15.2591C121.189 9.69712 123.101 5.72155 125.012 3.33238C125.509 2.72075 125.93 2.32893 126.274 2.15691C126.637 1.96578 127.048 1.79376 127.506 1.64085C127.965 1.48794 128.443 1.34459 128.94 1.2108C129.934 0.943212 130.87 0.761635 131.75 0.666069C132.648 0.551389 133.451 0.656513 134.158 0.98144C134.865 1.28725 135.41 1.74597 135.792 2.3576C136.193 2.96923 136.442 3.69553 136.537 4.53652C136.633 5.35839 136.604 6.22805 136.451 7.14549C136.299 8.04382 136.021 8.96126 135.62 9.89781C135.219 10.8152 134.712 11.6753 134.1 12.4781C132.763 14.2365 131.195 15.3738 129.399 15.8898L129.685 16.3772C129.934 16.7595 130.23 17.18 130.574 17.6387C130.937 18.0974 131.291 18.5657 131.635 19.0435C131.998 19.5214 132.323 19.9992 132.61 20.477C132.896 20.9549 133.107 21.404 133.24 21.8245C133.546 22.7611 133.307 23.4396 132.524 23.8601C131.893 24.2424 131.396 24.3379 131.033 24.1468C130.88 24.0512 130.727 23.927 130.574 23.7741C130.421 23.6403 130.211 23.5256 129.943 23.4301C128.816 23.755 127.956 23.4683 127.363 22.5699C127 21.9965 126.723 21.4709 126.532 20.9931C126.34 20.5153 126.178 20.1139 126.044 19.789C125.7 19.0818 125.308 18.4701 124.869 17.9541C124.658 18.4701 124.42 19.1295 124.152 19.9323C123.827 20.9453 123.464 21.9965 123.063 23.086H123.206ZM128.997 6.40007C128.634 7.22194 128.386 7.79534 128.252 8.12027C127.984 8.77012 127.688 9.48687 127.363 10.2705C127.306 10.691 127.258 10.9873 127.22 11.1593L127.621 10.7579L128.108 10.5285C128.452 10.3374 128.768 10.1654 129.055 10.0125C129.341 9.85958 129.599 9.66845 129.829 9.43909C130.268 8.99948 130.651 8.28273 130.975 7.28884C130.975 7.09771 131.004 6.90657 131.061 6.71544C131.138 6.52431 131.186 6.33317 131.205 6.14204C131.281 5.72155 131.109 5.42529 130.689 5.25327C130.306 5.21504 129.829 5.53041 129.255 6.19938C129.141 6.33317 129.055 6.40007 128.997 6.40007ZM141.928 19.3876C143.037 19.5023 143.859 19.5596 144.394 19.5596C144.948 19.5596 145.78 19.4831 146.888 19.3302C147.232 19.4449 147.433 19.5883 147.49 19.7603C147.548 19.9323 147.567 20.1139 147.548 20.305C147.528 20.477 147.538 20.6491 147.576 20.8211C147.615 20.9931 147.796 21.1364 148.121 21.2511C148.293 21.3085 148.341 21.4805 148.264 21.7672C148.207 22.0348 148.054 22.331 147.806 22.656C147.175 23.4778 146.429 24.0512 145.569 24.3762C144.193 24.7202 143.113 24.9209 142.33 24.9782C141.03 25.0738 139.616 25.026 138.087 24.8349C136.405 24.5291 135.592 23.8314 135.65 22.742C135.65 18.7282 136.529 14.6953 138.287 10.6432C138.861 9.32441 139.51 7.93869 140.237 6.48608C140.39 6.18027 140.476 5.83623 140.495 5.45396C140.533 5.07169 140.562 4.69898 140.581 4.33583C140.6 3.97268 140.657 3.64775 140.753 3.36105C140.848 3.07435 141.049 2.87366 141.355 2.75898C145.33 1.17257 148.475 0.560946 150.787 0.924099C151.59 0.943212 152.116 1.22036 152.364 1.75553C152.632 2.27159 152.66 2.85455 152.45 3.5044C152.259 4.15425 151.867 4.76588 151.275 5.33928C150.701 5.91268 149.975 6.26628 149.096 6.40007C147.968 6.725 147.28 6.9448 147.032 7.05948C146.554 7.28884 146.21 7.59465 145.999 7.97692C145.732 8.39741 145.483 8.79879 145.254 9.18106C145.025 9.56333 144.862 9.97426 144.767 10.4139L144.652 11.0446C145.015 11.2166 145.455 11.274 145.971 11.2166C146.506 11.1402 146.993 11.0733 147.433 11.0159C147.892 10.9395 148.255 10.9299 148.522 10.9873C148.809 11.0446 148.866 11.3313 148.694 11.8474C148.542 12.3443 148.245 12.9082 147.806 13.5389C147.385 14.1696 146.783 14.6284 145.999 14.9151C145.502 15.0106 145.158 15.0871 144.967 15.1444C144.795 15.1826 144.661 15.2113 144.566 15.2304C144.432 15.2495 144.05 15.2782 143.419 15.3164C142.521 16.8455 141.976 18.0305 141.785 18.8715C141.708 19.2156 141.756 19.3876 141.928 19.3876ZM163.93 8.72234C163.93 8.14894 163.729 7.86224 163.328 7.86224C163.175 7.86224 162.993 7.90047 162.783 7.97692C162.573 8.05337 162.372 8.12027 162.181 8.17761C161.474 8.55988 160.92 8.98037 160.518 9.43909C160.136 9.8787 159.744 10.3756 159.343 10.9299C158.941 11.4842 158.597 12.0767 158.311 12.7075C158.024 13.3382 157.804 13.9307 157.651 14.485C157.097 16.5301 157.307 17.9063 158.282 18.6135C158.683 18.9002 159.104 19.0435 159.544 19.0435C160.002 19.0244 160.365 18.9289 160.633 18.7568C160.92 18.5848 161.197 18.4224 161.464 18.2694C161.732 18.1165 162.038 18.0114 162.382 17.9541C162.745 17.8776 163.185 17.9254 163.701 18.0974C164.236 18.2503 164.523 18.4606 164.561 18.7282C164.599 18.9958 164.599 19.2729 164.561 19.5596C164.523 19.8463 164.513 20.1043 164.532 20.3337C164.57 20.563 164.781 20.7064 165.163 20.7637C165.526 21.2225 165.297 21.7767 164.475 22.4266C164.265 22.5986 164.064 22.7611 163.873 22.914C162.229 23.9652 160.48 24.5482 158.626 24.6629C157.46 24.7393 156.218 24.5291 154.899 24.0321C152.93 23.2867 151.822 21.6143 151.573 19.0149C151.248 16.6066 151.554 14.1123 152.491 11.532C153.274 9.35308 154.459 7.33662 156.046 5.48263C157.479 3.78154 158.894 2.67297 160.289 2.15691C161.952 1.29681 163.748 0.962326 165.679 1.15346C167.724 1.42105 169.062 2.2907 169.693 3.76243C170.323 5.23416 170.218 7.00214 169.377 9.06638C169.091 9.79269 168.546 10.3661 167.743 10.7866C167.055 11.1688 166.31 11.36 165.507 11.36C164.704 11.36 164.188 11.1115 163.959 10.6146C163.729 10.0985 163.72 9.46776 163.93 8.72234ZM180.193 3.61908C179.524 5.70243 178.903 7.5851 178.329 9.26707C177.775 10.949 177.259 12.4972 176.781 13.9116C176.322 15.326 175.892 16.6353 175.491 17.8394C175.09 19.0244 174.717 20.1617 174.373 21.2511C174.182 22.5126 173.561 23.4014 172.509 23.9174C171.898 24.2041 171.171 24.3475 170.33 24.3475C169.489 24.3475 168.859 24.2519 168.438 24.0608C168.018 23.8888 167.75 23.6307 167.635 23.2867C167.502 22.9427 167.502 22.5317 167.635 22.0539C167.75 21.5569 167.96 20.888 168.266 20.047C168.572 19.1869 168.954 18.0305 169.413 16.5779C169.891 15.1253 170.388 13.6536 170.904 12.1627C172.184 8.43564 173.197 5.85534 173.943 4.42184C174.23 3.88667 174.516 3.53307 174.803 3.36105C175.09 3.16992 175.367 3.03612 175.634 2.95967C175.902 2.8641 176.15 2.75898 176.38 2.6443C176.609 2.52962 176.81 2.24292 176.982 1.7842C177.173 1.32548 177.507 1.01011 177.985 0.838088C178.482 0.666068 178.941 0.656512 179.361 0.809419C179.801 0.943212 180.126 1.24903 180.336 1.72686C180.566 2.18558 180.518 2.81632 180.193 3.61908ZM193.874 16.8646C193.109 17.438 192.307 17.8585 191.466 18.1261C190.644 18.3746 189.822 18.4415 189 18.3268C188.178 18.2121 187.471 17.8585 186.878 17.266C186.343 18.9671 185.98 20.6491 185.789 22.3119C185.712 22.6177 185.579 22.8949 185.388 23.1434C185.043 24.1564 184.289 24.8349 183.123 25.1789C181.976 25.5038 180.905 25.4465 179.912 25.0069C179.453 24.7967 179.071 24.4908 178.765 24.0895C178.459 23.6881 178.306 23.2007 178.306 22.6273C179.625 18.0592 180.896 14.313 182.119 11.3886C182.387 10.777 182.597 10.2801 182.75 9.89781C182.922 9.51554 183.075 9.19062 183.209 8.92303C183.342 8.65544 183.457 8.42608 183.553 8.23495C183.667 8.0247 183.801 7.79534 183.954 7.54687C184.298 6.97347 184.69 6.3045 185.129 5.53997C185.588 4.75632 185.97 4.17337 186.276 3.7911C186.601 3.40883 186.936 3.0839 187.28 2.81632C187.643 2.52962 188.035 2.26203 188.455 2.01356C188.895 1.76508 189.44 1.44016 190.089 1.03878C190.739 0.637398 191.427 0.398482 192.154 0.32203C192.899 0.226462 193.606 0.283802 194.275 0.494049C195.69 0.933656 196.731 1.91799 197.4 3.44706C197.974 4.86145 198.069 6.76322 197.687 9.15239C197.094 12.803 195.823 15.3738 193.874 16.8646ZM187.882 14.313C189.449 13.9689 190.539 12.9464 191.15 11.2453C191.666 9.8118 191.771 8.18717 191.466 6.3714C191.026 7.11682 190.625 7.89091 190.261 8.69367C189.917 9.49643 189.602 10.2132 189.315 10.8439C188.685 12.2583 188.207 13.4147 187.882 14.313ZM203.606 19.3876C204.714 19.5023 205.536 19.5596 206.071 19.5596C206.626 19.5596 207.457 19.4831 208.566 19.3302C208.91 19.4449 209.11 19.5883 209.168 19.7603C209.225 19.9323 209.244 20.1139 209.225 20.305C209.206 20.477 209.215 20.6491 209.254 20.8211C209.292 20.9931 209.474 21.1364 209.798 21.2511C209.97 21.3085 210.018 21.4805 209.942 21.7672C209.884 22.0348 209.732 22.331 209.483 22.656C208.852 23.4778 208.107 24.0512 207.247 24.3762C205.871 24.7202 204.791 24.9209 204.007 24.9782C202.707 25.0738 201.293 25.026 199.764 24.8349C198.082 24.5291 197.27 23.8314 197.327 22.742C197.327 18.7282 198.206 14.6953 199.965 10.6432C200.538 9.32441 201.188 7.93869 201.914 6.48608C202.067 6.18027 202.153 5.83623 202.172 5.45396C202.21 5.07169 202.239 4.69898 202.258 4.33583C202.277 3.97268 202.335 3.64775 202.43 3.36105C202.526 3.07435 202.727 2.87366 203.032 2.75898C207.008 1.17257 210.152 0.560946 212.465 0.924099C213.268 0.943212 213.793 1.22036 214.042 1.75553C214.309 2.27159 214.338 2.85455 214.128 3.5044C213.936 4.15425 213.545 4.76588 212.952 5.33928C212.379 5.91268 211.652 6.26628 210.773 6.40007C209.646 6.725 208.957 6.9448 208.709 7.05948C208.231 7.28884 207.887 7.59465 207.677 7.97692C207.409 8.39741 207.161 8.79879 206.931 9.18106C206.702 9.56333 206.54 9.97426 206.444 10.4139L206.329 11.0446C206.693 11.2166 207.132 11.274 207.648 11.2166C208.183 11.1402 208.671 11.0733 209.11 11.0159C209.569 10.9395 209.932 10.9299 210.2 10.9873C210.487 11.0446 210.544 11.3313 210.372 11.8474C210.219 12.3443 209.923 12.9082 209.483 13.5389C209.063 14.1696 208.461 14.6284 207.677 14.9151C207.18 15.0106 206.836 15.0871 206.645 15.1444C206.473 15.1826 206.339 15.2113 206.243 15.2304C206.11 15.2495 205.727 15.2782 205.097 15.3164C204.198 16.8455 203.654 18.0305 203.462 18.8715C203.386 19.2156 203.434 19.3876 203.606 19.3876Z" fill="black"/>
</svg>
