<svg width="123" height="26" viewBox="0 0 123 26" fill="none" xmlns="http://www.w3.org/2000/svg">
<path d="M9.08033 15.6605C8.56427 17.1513 8.03866 18.5848 7.50348 19.961C6.96831 21.3371 6.51915 22.3788 6.15599 23.086C5.81195 23.8123 5.50614 24.3093 5.23855 24.5769C4.97097 24.8444 4.69382 25.026 4.40712 25.1216C4.13954 25.2171 3.86239 25.2554 3.57569 25.2363C3.30811 25.2171 3.03096 25.198 2.74426 25.1789C1.13874 24.9304 0.641796 23.7741 1.25342 21.7098C1.6548 20.0661 1.97973 18.7282 2.2282 17.696C2.47668 16.6448 2.67737 15.7847 2.83027 15.1157C3.00229 14.4277 3.14564 13.8638 3.26032 13.4242C3.375 12.9655 3.49924 12.5163 3.63303 12.0767C3.76683 11.6371 3.92929 11.1402 4.12042 10.5859C4.33067 10.0316 4.59826 9.29574 4.92318 8.3783C4.19688 8.47387 3.54702 8.39741 2.97362 8.14894C2.13264 7.78579 1.7886 7.00214 1.9415 5.798C2.01796 5.24371 2.31421 4.72765 2.83027 4.24982C3.09786 4.00135 3.41323 3.73376 3.77638 3.44706C4.5218 2.85455 6.00309 2.22381 8.22023 1.55484C10.5138 0.866759 12.4825 0.541832 14.1263 0.580058C14.5659 0.503606 15.015 0.560946 15.4737 0.752079C15.9516 0.924099 16.3338 1.16302 16.6205 1.46883C16.9072 1.77464 17.0506 2.10913 17.0506 2.47228C17.0697 2.83543 16.8403 3.16036 16.3625 3.44706C16.1332 3.59997 15.9707 3.858 15.8751 4.22115C15.7796 4.56519 15.6744 4.9379 15.5598 5.33928C15.4451 5.72155 15.2731 6.07514 15.0437 6.40007C14.8334 6.725 14.4894 6.91613 14.0116 6.97347C13.7631 7.10726 13.4095 7.20283 12.9508 7.26017C12.5112 7.31751 12.2149 7.36529 12.062 7.40352C11.9282 7.42263 11.8518 7.47042 11.8327 7.54687C11.4886 8.55988 11.0777 9.79269 10.5998 11.2453C10.122 12.6788 9.61551 14.1505 9.08033 15.6605ZM5.20988 8.06293C5.17166 8.06293 5.15254 8.07249 5.15254 8.0916C5.15254 8.0916 5.17166 8.0916 5.20988 8.0916V8.06293ZM26.195 3.61908C25.526 5.70243 24.9048 7.5851 24.3314 9.26707C23.7771 10.949 23.2611 12.4972 22.7832 13.9116C22.3245 15.326 21.8945 16.6353 21.4931 17.8394C21.0917 19.0244 20.719 20.1617 20.375 21.2511C20.1838 22.5126 19.5626 23.4014 18.5114 23.9174C17.8998 24.2041 17.1735 24.3475 16.3325 24.3475C15.4915 24.3475 14.8608 24.2519 14.4403 24.0608C14.0198 23.8888 13.7522 23.6307 13.6375 23.2867C13.5037 22.9427 13.5037 22.5317 13.6375 22.0539C13.7522 21.5569 13.9624 20.888 14.2683 20.047C14.5741 19.1869 14.9563 18.0305 15.4151 16.5779C15.8929 15.1253 16.3898 13.6536 16.9059 12.1627C18.1865 8.43564 19.1995 5.85534 19.9449 4.42184C20.2316 3.88667 20.5183 3.53307 20.805 3.36105C21.0917 3.16992 21.3689 3.03612 21.6364 2.95967C21.904 2.8641 22.1525 2.75898 22.3819 2.6443C22.6112 2.52962 22.8119 2.24292 22.9839 1.7842C23.1751 1.32548 23.5096 1.01011 23.9874 0.838088C24.4843 0.666068 24.9431 0.656512 25.3635 0.809419C25.8032 0.943212 26.1281 1.24903 26.3383 1.72686C26.5677 2.18558 26.5199 2.81632 26.195 3.61908ZM36.4355 2.0709C36.6267 2.58696 36.7318 2.931 36.7509 3.10302C36.7891 3.46617 36.6553 3.77199 36.3495 4.02046C36.3495 4.03957 36.3304 4.06824 36.2922 4.10647C36.4642 5.0048 36.5024 5.84578 36.4069 6.62943C36.3113 7.41308 36.1871 8.16805 36.0342 8.89436C37.0663 7.13593 37.8882 5.84578 38.4998 5.02391C39.7613 3.32282 40.9367 2.10913 42.0262 1.38282C42.3894 1.17257 42.829 1.01967 43.345 0.924099C43.8802 0.809419 44.3867 0.790306 44.8645 0.86676C45.3424 0.943213 45.7342 1.13435 46.04 1.44016C46.3649 1.74597 46.5083 2.20469 46.47 2.81632C45.9349 6.54342 45.3615 10.022 44.7498 13.2522C44.1382 16.4632 43.345 19.5309 42.3702 22.4553V22.5126H42.3416C42.1122 23.2007 41.5388 23.6881 40.6214 23.9748C39.723 24.2424 38.9203 24.2615 38.2131 24.0321C37.353 23.7836 36.9612 23.3249 37.0376 22.656L37.0663 21.9965V21.9392C37.1427 21.4805 37.181 21.1747 37.181 21.0218C37.2001 20.8497 37.2192 20.7255 37.2383 20.6491C37.2765 20.1521 37.353 19.6934 37.4677 19.2729C37.6015 18.8333 37.697 18.4797 37.7544 18.2121C37.8117 17.9445 37.869 17.696 37.9264 17.4667C37.9837 17.2182 38.022 17.0271 38.0411 16.8933C37.3148 17.8872 36.7987 18.4893 36.4929 18.6995C35.7284 19.2347 34.8396 19.4831 33.8266 19.4449C33.1958 19.4067 32.8327 19.2633 32.7371 19.0149C32.546 18.4797 32.4122 18.1643 32.3357 18.0688C32.2211 17.9159 32.1255 17.6578 32.049 17.2947C31.5521 19.4927 31.0647 21.0504 30.5869 21.9679C30.3957 22.331 30.2046 22.656 30.0135 22.9427C29.7459 23.5734 29.1343 24.013 28.1786 24.2615C27.2803 24.51 26.4202 24.4908 25.5983 24.2041C24.7573 23.9366 24.3559 23.4587 24.3941 22.7706C24.4324 22.0826 24.5757 21.2225 24.8242 20.1903C25.0536 19.1391 25.3307 18.0305 25.6556 16.8646C26.6304 13.1757 27.3185 10.777 27.7199 9.66845C28.1404 8.55988 28.494 7.69022 28.7807 7.05948C29.4687 5.58775 30.0804 4.51741 30.6155 3.84844C31.208 2.6443 32.1924 1.91799 33.5685 1.66952C34.658 1.45927 35.6137 1.59307 36.4355 2.0709ZM52.0437 19.3876C53.1522 19.5023 53.9741 19.5596 54.5093 19.5596C55.0636 19.5596 55.895 19.4831 57.0036 19.3302C57.3476 19.4449 57.5483 19.5883 57.6057 19.7603C57.663 19.9323 57.6821 20.1139 57.663 20.305C57.6439 20.477 57.6534 20.6491 57.6917 20.8211C57.7299 20.9931 57.9115 21.1364 58.2364 21.2511C58.4084 21.3085 58.4562 21.4805 58.3797 21.7672C58.3224 22.0348 58.1695 22.331 57.921 22.656C57.2903 23.4778 56.5449 24.0512 55.6848 24.3762C54.3086 24.7202 53.2287 24.9209 52.4451 24.9782C51.1453 25.0738 49.731 25.026 48.2019 24.8349C46.5199 24.5291 45.7076 23.8314 45.7649 22.742C45.7649 18.7282 46.6442 14.6953 48.4026 10.6432C48.976 9.32441 49.6258 7.93869 50.3521 6.48608C50.5051 6.18027 50.5911 5.83623 50.6102 5.45396C50.6484 5.07169 50.6771 4.69898 50.6962 4.33583C50.7153 3.97268 50.7726 3.64775 50.8682 3.36105C50.9638 3.07435 51.1645 2.87366 51.4703 2.75898C55.4458 1.17257 58.59 0.560946 60.9027 0.924099C61.7055 0.943212 62.2311 1.22036 62.4796 1.75553C62.7471 2.27159 62.7758 2.85455 62.5656 3.5044C62.3744 4.15425 61.9826 4.76588 61.3901 5.33928C60.8167 5.91268 60.0904 6.26628 59.2112 6.40007C58.0835 6.725 57.3954 6.9448 57.1469 7.05948C56.6691 7.28884 56.3251 7.59465 56.1148 7.97692C55.8472 8.39741 55.5988 8.79879 55.3694 9.18106C55.14 9.56333 54.9776 9.97426 54.882 10.4139L54.7673 11.0446C55.1305 11.2166 55.5701 11.274 56.0861 11.2166C56.6213 11.1402 57.1087 11.0733 57.5483 11.0159C58.007 10.9395 58.3702 10.9299 58.6378 10.9873C58.9245 11.0446 58.9818 11.3313 58.8098 11.8474C58.6569 12.3443 58.3606 12.9082 57.921 13.5389C57.5005 14.1696 56.8985 14.6284 56.1148 14.9151C55.6179 15.0106 55.2738 15.0871 55.0827 15.1444C54.9107 15.1826 54.7769 15.2113 54.6813 15.2304C54.5475 15.2495 54.1653 15.2782 53.5345 15.3164C52.6362 16.8455 52.0915 18.0305 51.9003 18.8715C51.8239 19.2156 51.8717 19.3876 52.0437 19.3876ZM71.1211 24.3762C70.7197 24.4908 70.3374 24.5482 69.9743 24.5482C69.6111 24.5673 69.2384 24.5864 68.8562 24.6055C68.493 24.6246 67.9865 24.6342 67.3366 24.6342C66.6868 24.6342 65.712 24.6151 64.4123 24.5769C64.1065 24.596 63.8007 24.6055 63.4949 24.6055C63.1891 24.6055 62.9024 24.5482 62.6348 24.4335C62.0423 24.185 61.6409 23.6116 61.4306 22.7133C61.3351 22.2928 61.2299 21.9965 61.1153 21.8245C60.9815 21.6525 60.8763 21.49 60.7999 21.3371C60.6088 21.0313 60.6279 20.5248 60.8572 19.8176C61.0675 19.1104 61.3446 18.2408 61.6887 17.2087C62.0327 16.1574 62.4245 15.0489 62.8641 13.8829C63.8962 11.1115 64.8232 8.91347 65.6451 7.28884C65.97 6.56253 66.2472 5.93179 66.4765 5.39662C66.725 4.86145 66.9448 4.40273 67.136 4.02046C67.3271 3.61908 67.4227 3.40883 67.4227 3.38972C67.6138 2.66341 68.3497 2.05179 69.6303 1.55484C70.8726 1.03878 72.0003 0.904986 73.0133 1.15346C74.141 1.44016 74.6379 2.18558 74.5042 3.38972C74.2366 4.57475 73.8352 5.75977 73.3 6.9448C72.784 8.12983 72.1914 9.37219 71.5225 10.6719C70.8535 11.9716 70.1272 13.3478 69.3436 14.8004C68.5599 16.253 67.7858 17.8298 67.0213 19.5309C67.0022 19.6074 67.0404 19.6743 67.136 19.7316C67.3844 19.7125 67.7285 19.6361 68.1681 19.5023C68.6268 19.3685 69.0951 19.2538 69.5729 19.1582C70.0699 19.0435 70.5572 18.9862 71.0351 18.9862C71.5129 18.9862 71.9143 19.1104 72.2392 19.3589C72.2201 19.7029 72.3061 19.9801 72.4973 20.1903C72.6884 20.3815 72.8795 20.5726 73.0707 20.7637C73.5485 21.2607 73.5867 21.9201 73.1853 22.742C72.8031 23.5447 72.115 24.0895 71.1211 24.3762ZM87.2565 3.61908C86.5875 5.70243 85.9663 7.5851 85.3929 9.26707C84.8386 10.949 84.3226 12.4972 83.8447 13.9116C83.386 15.326 82.956 16.6353 82.5546 17.8394C82.1532 19.0244 81.7805 20.1617 81.4365 21.2511C81.2453 22.5126 80.6241 23.4014 79.5729 23.9174C78.9613 24.2041 78.235 24.3475 77.394 24.3475C76.553 24.3475 75.9223 24.2519 75.5018 24.0608C75.0813 23.8888 74.8137 23.6307 74.699 23.2867C74.5652 22.9427 74.5652 22.5317 74.699 22.0539C74.8137 21.5569 75.0239 20.888 75.3297 20.047C75.6356 19.1869 76.0178 18.0305 76.4765 16.5779C76.9544 15.1253 77.4513 13.6536 77.9674 12.1627C79.248 8.43564 80.261 5.85534 81.0064 4.42184C81.2931 3.88667 81.5798 3.53307 81.8665 3.36105C82.1532 3.16992 82.4304 3.03612 82.6979 2.95967C82.9655 2.8641 83.214 2.75898 83.4434 2.6443C83.6727 2.52962 83.8734 2.24292 84.0454 1.7842C84.2366 1.32548 84.571 1.01011 85.0489 0.838088C85.5458 0.666068 86.0045 0.656512 86.425 0.809419C86.8646 0.943212 87.1896 1.24903 87.3998 1.72686C87.6292 2.18558 87.5814 2.81632 87.2565 3.61908ZM88.1793 11.876C88.5616 10.5954 88.8674 9.61111 89.0967 8.92303C89.3452 8.21584 89.5841 7.5851 89.8135 7.03081C90.0428 6.47652 90.3009 5.94135 90.5876 5.42529C90.8934 4.90923 91.2183 4.44095 91.5624 4.02046C91.9255 3.58085 92.3078 3.23681 92.7092 2.98834C93.1105 2.73987 93.531 2.61563 93.9706 2.61563C94.4102 2.61563 94.869 2.78765 95.3468 3.13169C96.1113 5.04302 96.5796 6.32362 96.7516 6.97347C96.981 7.92914 97.1912 9.27663 97.3824 11.0159C97.5544 10.5763 97.7455 10.1176 97.9558 9.63978C98.1851 9.14283 98.4049 8.64589 98.6152 8.14894C99.2077 6.88746 99.5804 5.93179 99.7333 5.28194C100.154 3.94401 101.023 2.94056 102.342 2.27159C103.489 1.69819 104.559 1.51661 105.553 1.72686C105.955 1.80331 106.232 1.96578 106.385 2.21425C106.557 2.46272 106.557 2.72075 106.385 2.98834C106.232 3.25593 106.175 3.51396 106.213 3.76243C106.27 3.99179 106.318 4.26893 106.356 4.59386C106.413 5.47307 106.261 6.25672 105.897 6.9448C105.534 7.61377 105.161 8.45475 104.779 9.46776C104.397 10.4617 104.005 11.5224 103.604 12.6501C103.221 13.7778 102.83 14.9246 102.428 16.0905C102.027 17.2564 101.635 18.3172 101.253 19.2729C100.412 21.4709 99.7238 22.6846 99.1886 22.914C98.4623 23.3536 97.9271 23.6116 97.5831 23.6881C97.1435 23.7645 96.5223 23.7645 95.7195 23.6881C95.2226 23.6499 94.7925 23.0096 94.4294 21.7672C94.2191 21.0982 94.028 20.1712 93.856 18.9862C93.5501 16.922 93.3399 15.7847 93.2252 15.5745C92.4607 18.0592 91.916 19.6265 91.591 20.2763C91.2852 20.9262 91.0463 21.3563 90.8743 21.5665C90.7214 21.7767 90.5302 22.0539 90.3009 22.3979C90.0524 23.086 89.4599 23.5925 88.5233 23.9174C87.7206 24.2233 86.9943 24.271 86.3444 24.0608C85.6372 23.8314 85.427 23.3918 85.7137 22.742C85.9239 20.4484 86.7458 16.8264 88.1793 11.876ZM111.341 19.3876C112.45 19.5023 113.272 19.5596 113.807 19.5596C114.361 19.5596 115.193 19.4831 116.301 19.3302C116.645 19.4449 116.846 19.5883 116.903 19.7603C116.961 19.9323 116.98 20.1139 116.961 20.305C116.942 20.477 116.951 20.6491 116.989 20.8211C117.028 20.9931 117.209 21.1364 117.534 21.2511C117.706 21.3085 117.754 21.4805 117.677 21.7672C117.62 22.0348 117.467 22.331 117.219 22.656C116.588 23.4778 115.842 24.0512 114.982 24.3762C113.606 24.7202 112.526 24.9209 111.743 24.9782C110.443 25.0738 109.029 25.026 107.5 24.8349C105.818 24.5291 105.005 23.8314 105.063 22.742C105.063 18.7282 105.942 14.6953 107.7 10.6432C108.274 9.32441 108.923 7.93869 109.65 6.48608C109.803 6.18027 109.889 5.83623 109.908 5.45396C109.946 5.07169 109.975 4.69898 109.994 4.33583C110.013 3.97268 110.07 3.64775 110.166 3.36105C110.261 3.07435 110.462 2.87366 110.768 2.75898C114.743 1.17257 117.888 0.560946 120.2 0.924099C121.003 0.943212 121.529 1.22036 121.777 1.75553C122.045 2.27159 122.073 2.85455 121.863 3.5044C121.672 4.15425 121.28 4.76588 120.688 5.33928C120.114 5.91268 119.388 6.26628 118.509 6.40007C117.381 6.725 116.693 6.9448 116.445 7.05948C115.967 7.28884 115.623 7.59465 115.412 7.97692C115.145 8.39741 114.896 8.79879 114.667 9.18106C114.438 9.56333 114.275 9.97426 114.18 10.4139L114.065 11.0446C114.428 11.2166 114.868 11.274 115.384 11.2166C115.919 11.1402 116.406 11.0733 116.846 11.0159C117.305 10.9395 117.668 10.9299 117.935 10.9873C118.222 11.0446 118.279 11.3313 118.107 11.8474C117.955 12.3443 117.658 12.9082 117.219 13.5389C116.798 14.1696 116.196 14.6284 115.412 14.9151C114.915 15.0106 114.571 15.0871 114.38 15.1444C114.208 15.1826 114.075 15.2113 113.979 15.2304C113.845 15.2495 113.463 15.2782 112.832 15.3164C111.934 16.8455 111.389 18.0305 111.198 18.8715C111.121 19.2156 111.169 19.3876 111.341 19.3876Z" fill="black"/>
</svg>
