<svg width="210" height="26" viewBox="0 0 210 26" fill="none" xmlns="http://www.w3.org/2000/svg">
<path d="M15.7712 16.8636C15.0065 17.4371 14.2036 17.8576 13.3625 18.1253C12.5405 18.3738 11.7185 18.4407 10.8965 18.326C10.0745 18.2113 9.36714 17.8576 8.77452 17.265C8.23926 18.9664 7.87604 20.6487 7.68488 22.3118C7.60841 22.6177 7.4746 22.8949 7.28343 23.1434C6.93933 24.1566 6.18423 24.8352 5.01812 25.1793C3.87112 25.5043 2.80059 25.4469 1.80653 25.0072C1.34773 24.797 0.965399 24.4911 0.659533 24.0896C0.353668 23.6882 0.200735 23.2007 0.200735 22.6272C1.51978 18.0584 2.79103 14.3115 4.01449 11.3867C4.28213 10.7749 4.49241 10.2779 4.64534 9.89558C4.81739 9.51325 4.97032 9.18827 5.10414 8.92063C5.23796 8.653 5.35266 8.4236 5.44824 8.23244C5.56294 8.02215 5.69675 7.79276 5.84969 7.54424C6.19378 6.97074 6.58567 6.30166 7.02536 5.537C7.48415 4.75322 7.86649 4.17016 8.17235 3.78783C8.49733 3.4055 8.83187 3.08052 9.17597 2.81288C9.53919 2.52614 9.93108 2.2585 10.3516 2.00999C10.7913 1.76147 11.3361 1.43649 11.9861 1.03504C12.6361 0.633594 13.3243 0.394637 14.0507 0.318172C14.7962 0.222588 15.5036 0.279938 16.1726 0.490221C17.5873 0.929902 18.6291 1.91441 19.2982 3.44373C19.8717 4.85836 19.9673 6.76046 19.585 9.15003C18.9923 12.8013 17.7211 15.3725 15.7712 16.8636ZM9.77814 14.3115C11.3457 13.9674 12.4353 12.9447 13.0471 11.2433C13.5632 9.80956 13.6684 8.18465 13.3625 6.36857C12.9228 7.11412 12.5214 7.88834 12.1582 8.69124C11.8141 9.49413 11.4986 10.211 11.2119 10.8419C10.581 12.2565 10.1031 13.413 9.77814 14.3115ZM31.1537 3.61578C30.4846 5.69949 29.8633 7.58247 29.2898 9.26473C28.7355 10.947 28.2193 12.4954 27.7414 13.9101C27.2826 15.3247 26.8525 16.6342 26.451 17.8385C26.0496 19.0238 25.6768 20.1612 25.3327 21.2508C25.1415 22.5125 24.5202 23.4014 23.4688 23.9176C22.8571 24.2043 22.1307 24.3477 21.2895 24.3477C20.4484 24.3477 19.8176 24.2521 19.397 24.061C18.9764 23.8889 18.7088 23.6308 18.5941 23.2867C18.4603 22.9427 18.4603 22.5316 18.5941 22.0537C18.7088 21.5567 18.9191 20.8876 19.2249 20.0465C19.5308 19.1862 19.9131 18.0297 20.3719 16.5768C20.8499 15.124 21.3469 13.652 21.863 12.1609C23.1438 8.43316 24.157 5.85242 24.9026 4.41868C25.1893 3.88341 25.4761 3.52976 25.7628 3.35771C26.0496 3.16654 26.3268 3.03273 26.5944 2.95626C26.862 2.86068 27.1105 2.75554 27.3399 2.64084C27.5693 2.52614 27.7701 2.23939 27.9421 1.78059C28.1333 1.32179 28.4678 1.00637 28.9457 0.834318C29.4428 0.662269 29.9016 0.652711 30.3221 0.805644C30.7618 0.93946 31.0868 1.24533 31.2971 1.72324C31.5265 2.18204 31.4787 2.81288 31.1537 3.61578ZM43.1452 19.387C43.9672 19.3678 44.5216 19.559 44.8083 19.9605C45.0951 20.3619 45.1811 20.8207 45.0664 21.3369C44.9708 21.853 44.7032 22.3692 44.2635 22.8853C43.8429 23.3823 43.3172 23.7264 42.6864 23.9176C41.5203 24.4337 40.0101 24.7778 38.1557 24.9499C36.4926 25.1219 34.8486 25.1028 33.2237 24.8925C32.2487 24.7587 31.5701 24.5198 31.1877 24.1757C30.4231 23.5066 30.0885 22.5699 30.1841 21.3655C30.2224 20.792 30.3371 20.3237 30.5282 19.9605C30.8341 19.4634 31.312 18.737 31.962 17.7812C32.6311 16.8253 33.2906 15.9555 33.9405 15.1718C34.6096 14.388 35.2691 13.6329 35.9191 12.9064C38.4616 10.0581 39.9623 8.27067 40.4211 7.54424C40.5166 7.39131 40.66 7.095 40.8512 6.65532C39.1116 7.05677 37.3624 7.02809 35.6037 6.56929C34.9346 6.39725 34.4758 5.96712 34.2273 5.27893C33.9597 4.53338 34.1508 3.83562 34.8008 3.18566C35.7375 2.17248 37.1234 1.41738 38.9586 0.920343C40.6791 0.461546 42.3996 0.289496 44.1201 0.404195C44.426 0.499778 44.6649 0.595361 44.837 0.690944C45.009 0.76741 45.2002 0.929902 45.4105 1.17842L45.4392 1.72324C45.5347 1.76147 45.6877 1.79971 45.898 1.83794C46.1274 1.87617 46.2994 1.92396 46.4141 1.98131C46.5288 2.01955 46.6531 2.08646 46.7869 2.18204C46.9207 2.27762 47.045 2.41144 47.1597 2.58349C47.3891 2.96582 47.4942 3.60622 47.4751 4.5047C47.4751 5.38407 47.2648 6.34945 46.8442 7.40087C46.4428 8.43316 45.9458 9.44634 45.3531 10.4404C44.7605 11.4345 44.1201 12.3807 43.4319 13.2792C42.7628 14.1586 42.1893 14.9041 41.7114 15.5159C41.2335 16.1276 40.8512 16.6246 40.5644 17.007C40.2968 17.3702 40.0961 17.6856 39.9623 17.9532C39.7137 18.4311 39.7329 18.8039 40.0196 19.0715L43.1452 19.387ZM43.4893 19.4443H43.2312H43.4893ZM59.7923 19.387C60.6143 19.3678 61.1687 19.559 61.4554 19.9605C61.7422 20.3619 61.8282 20.8207 61.7135 21.3369C61.6179 21.853 61.3503 22.3692 60.9106 22.8853C60.49 23.3823 59.9643 23.7264 59.3335 23.9176C58.1674 24.4337 56.6572 24.7778 54.8029 24.9499C53.1397 25.1219 51.4957 25.1028 49.8708 24.8925C48.8958 24.7587 48.2172 24.5198 47.8349 24.1757C47.0702 23.5066 46.7357 22.5699 46.8312 21.3655C46.8695 20.792 46.9842 20.3237 47.1753 19.9605C47.4812 19.4634 47.9591 18.737 48.6091 17.7812C49.2782 16.8253 49.9377 15.9555 50.5876 15.1718C51.2567 14.388 51.9162 13.6329 52.5662 12.9064C55.1087 10.0581 56.6094 8.27067 57.0682 7.54424C57.1638 7.39131 57.3071 7.095 57.4983 6.65532C55.7587 7.05677 54.0095 7.02809 52.2508 6.56929C51.5817 6.39725 51.1229 5.96712 50.8744 5.27893C50.6068 4.53338 50.7979 3.83562 51.4479 3.18566C52.3846 2.17248 53.7706 1.41738 55.6058 0.920343C57.3262 0.461546 59.0467 0.289496 60.7672 0.404195C61.0731 0.499778 61.3121 0.595361 61.4841 0.690944C61.6561 0.76741 61.8473 0.929902 62.0576 1.17842L62.0863 1.72324C62.1819 1.76147 62.3348 1.79971 62.5451 1.83794C62.7745 1.87617 62.9465 1.92396 63.0612 1.98131C63.1759 2.01955 63.3002 2.08646 63.434 2.18204C63.5678 2.27762 63.6921 2.41144 63.8068 2.58349C64.0362 2.96582 64.1413 3.60622 64.1222 4.5047C64.1222 5.38407 63.9119 6.34945 63.4913 7.40087C63.0899 8.43316 62.5929 9.44634 62.0002 10.4404C61.4076 11.4345 60.7672 12.3807 60.079 13.2792C59.41 14.1586 58.8365 14.9041 58.3585 15.5159C57.8806 16.1276 57.4983 16.6246 57.2115 17.007C56.9439 17.3702 56.7432 17.6856 56.6094 17.9532C56.3609 18.4311 56.38 18.8039 56.6667 19.0715L59.7923 19.387ZM60.1364 19.4443H59.8783H60.1364ZM79.2782 3.55843C79.9282 3.90253 80.3392 4.40912 80.5112 5.0782C80.1289 7.21926 79.7848 9.35076 79.4789 11.4727C79.1731 13.5755 78.8768 15.3438 78.59 16.7776C78.3033 18.1922 78.1025 19.2531 77.9878 19.9605C77.8923 20.6678 77.7776 21.3751 77.6437 22.0824L77.4717 22.6846C77.4335 22.8949 77.3952 23.086 77.357 23.2581C77.3188 23.4492 77.2805 23.65 77.2423 23.8602C76.707 24.472 75.9806 24.7778 75.063 24.7778C74.0881 24.7778 73.3138 24.5293 72.7403 24.0323C72.3962 23.7647 72.3389 23.2007 72.5683 22.3405C72.6639 21.9964 72.7212 21.5567 72.7403 21.0214C72.7786 20.4671 72.8168 20.0083 72.855 19.645V19.5877C72.2815 19.798 71.7654 20.0752 71.3066 20.4193C70.8478 20.7442 70.561 20.9545 70.4463 21.0501C70.3316 21.1266 70.1787 21.1935 69.9875 21.2508C69.7964 21.2891 69.6243 21.3177 69.4714 21.3369C69.1082 21.356 68.8597 21.4133 68.7258 21.5089C67.6171 23.497 66.623 24.6058 65.7437 24.8352C65.1893 25.0072 64.6349 25.0455 64.0805 24.9499C63.5261 24.8734 63.0865 24.5484 62.7615 23.9749C62.1497 23.4014 62.3027 21.8339 63.2203 19.2723C63.7173 17.915 64.4246 16.2901 65.3422 14.3975C66.2789 12.4859 67.1774 10.8227 68.0377 9.40811C69.892 6.36857 71.9279 3.80695 74.1454 1.72324C74.5086 1.57031 74.9005 1.39826 75.3211 1.20709C75.7416 0.99681 76.1526 0.882111 76.5541 0.862994C76.9747 0.843877 77.4048 0.891668 77.8445 1.00637C78.2841 1.12107 78.6569 1.29312 78.9628 1.52252C79.6701 2.05778 79.7752 2.73642 79.2782 3.55843ZM73.1418 11.0999C72.7403 12.2469 72.3389 13.3079 71.9374 14.2828C71.536 15.2387 71.1919 16.0798 70.9051 16.8062L73.1705 16.7202C73.3234 15.4967 73.4954 14.2828 73.6866 13.0785C73.8778 11.8741 74.0594 10.6698 74.2314 9.46546L73.1418 11.0999ZM72.3676 16.8349C72.6352 16.8349 72.9028 16.8158 73.1705 16.7776V16.7489C72.9219 16.768 72.6925 16.7871 72.4823 16.8062C72.272 16.8253 72.2337 16.8349 72.3676 16.8349ZM104.397 16.8636C103.632 17.4371 102.829 17.8576 101.988 18.1253C101.166 18.3738 100.344 18.4407 99.522 18.326C98.7 18.2113 97.9927 17.8576 97.4001 17.265C96.8648 18.9664 96.5016 20.6487 96.3104 22.3118C96.2339 22.6177 96.1001 22.8949 95.909 23.1434C95.5649 24.1566 94.8098 24.8352 93.6436 25.1793C92.4967 25.5043 91.4261 25.4469 90.4321 25.0072C89.9733 24.797 89.5909 24.4911 89.2851 24.0896C88.9792 23.6882 88.8263 23.2007 88.8263 22.6272C90.1453 18.0584 91.4166 14.3115 92.64 11.3867C92.9077 10.7749 93.1179 10.2779 93.2709 9.89558C93.4429 9.51325 93.5959 9.18827 93.7297 8.92063C93.8635 8.653 93.9782 8.4236 94.0738 8.23244C94.1885 8.02215 94.3223 7.79276 94.4752 7.54424C94.8193 6.97074 95.2112 6.30166 95.6509 5.537C96.1097 4.75322 96.492 4.17016 96.7979 3.78783C97.1229 3.4055 97.4574 3.08052 97.8015 2.81288C98.1647 2.52614 98.5566 2.2585 98.9772 2.00999C99.4169 1.76147 99.9617 1.43649 100.612 1.03504C101.262 0.633594 101.95 0.394637 102.676 0.318172C103.422 0.222588 104.129 0.279938 104.798 0.490221C106.213 0.929902 107.255 1.91441 107.924 3.44373C108.497 4.85836 108.593 6.76046 108.21 9.15003C107.618 12.8013 106.347 15.3725 104.397 16.8636ZM98.4037 14.3115C99.9712 13.9674 101.061 12.9447 101.673 11.2433C102.189 9.80956 102.294 8.18465 101.988 6.36857C101.548 7.11412 101.147 7.88834 100.784 8.69124C100.44 9.49413 100.124 10.211 99.8374 10.8419C99.2066 12.2565 98.7287 13.413 98.4037 14.3115ZM117.6 24.3764C117.198 24.4911 116.816 24.5484 116.453 24.5484C116.09 24.5676 115.717 24.5867 115.335 24.6058C114.971 24.6249 114.465 24.6345 113.815 24.6345C113.165 24.6345 112.19 24.6154 110.89 24.5771C110.584 24.5962 110.278 24.6058 109.972 24.6058C109.667 24.6058 109.38 24.5484 109.112 24.4337C108.52 24.1852 108.118 23.6117 107.908 22.7133C107.812 22.2927 107.707 21.9964 107.592 21.8243C107.459 21.6523 107.353 21.4898 107.277 21.3369C107.086 21.031 107.105 20.5244 107.334 19.8171C107.545 19.1098 107.822 18.24 108.166 17.2077C108.51 16.1563 108.902 15.0475 109.342 13.8814C110.374 11.1095 111.301 8.91108 112.123 7.28617C112.448 6.55974 112.725 5.92889 112.955 5.39362C113.203 4.85836 113.423 4.39956 113.614 4.01723C113.805 3.61578 113.901 3.4055 113.901 3.38638C114.092 2.65995 114.828 2.04822 116.109 1.55119C117.351 1.03504 118.479 0.901227 119.492 1.14974C120.62 1.43649 121.117 2.18204 120.984 3.38638C120.716 4.57161 120.314 5.75684 119.779 6.94207C119.263 8.1273 118.67 9.36987 118.001 10.6698C117.332 11.9697 116.606 13.3461 115.822 14.799C115.038 16.2518 114.264 17.829 113.499 19.5303C113.48 19.6068 113.519 19.6737 113.614 19.7311C113.863 19.7119 114.207 19.6355 114.646 19.5017C115.105 19.3678 115.574 19.2531 116.051 19.1576C116.549 19.0429 117.036 18.9855 117.514 18.9855C117.992 18.9855 118.393 19.1098 118.718 19.3583C118.699 19.7024 118.785 19.9796 118.976 20.1899C119.168 20.381 119.359 20.5722 119.55 20.7634C120.028 21.2604 120.066 21.9199 119.665 22.7419C119.282 23.5448 118.594 24.0896 117.6 24.3764ZM137.466 3.55843C138.116 3.90253 138.527 4.40912 138.699 5.0782C138.316 7.21926 137.972 9.35076 137.667 11.4727C137.361 13.5755 137.064 15.3438 136.778 16.7776C136.491 18.1922 136.29 19.2531 136.175 19.9605C136.08 20.6678 135.965 21.3751 135.831 22.0824L135.659 22.6846C135.621 22.8949 135.583 23.086 135.545 23.2581C135.506 23.4492 135.468 23.65 135.43 23.8602C134.895 24.472 134.168 24.7778 133.251 24.7778C132.276 24.7778 131.501 24.5293 130.928 24.0323C130.584 23.7647 130.526 23.2007 130.756 22.3405C130.851 21.9964 130.909 21.5567 130.928 21.0214C130.966 20.4671 131.004 20.0083 131.043 19.645V19.5877C130.469 19.798 129.953 20.0752 129.494 20.4193C129.035 20.7442 128.749 20.9545 128.634 21.0501C128.519 21.1266 128.366 21.1935 128.175 21.2508C127.984 21.2891 127.812 21.3177 127.659 21.3369C127.296 21.356 127.047 21.4133 126.913 21.5089C125.805 23.497 124.811 24.6058 123.931 24.8352C123.377 25.0072 122.822 25.0455 122.268 24.9499C121.714 24.8734 121.274 24.5484 120.949 23.9749C120.337 23.4014 120.49 21.8339 121.408 19.2723C121.905 17.915 122.612 16.2901 123.53 14.3975C124.467 12.4859 125.365 10.8227 126.225 9.40811C128.08 6.36857 130.115 3.80695 132.333 1.72324C132.696 1.57031 133.088 1.39826 133.509 1.20709C133.929 0.99681 134.34 0.882111 134.742 0.862994C135.162 0.843877 135.592 0.891668 136.032 1.00637C136.472 1.12107 136.845 1.29312 137.15 1.52252C137.858 2.05778 137.963 2.73642 137.466 3.55843ZM131.329 11.0999C130.928 12.2469 130.526 13.3079 130.125 14.2828C129.724 15.2387 129.379 16.0798 129.093 16.8062L131.358 16.7202C131.511 15.4967 131.683 14.2828 131.874 13.0785C132.065 11.8741 132.247 10.6698 132.419 9.46546L131.329 11.0999ZM130.555 16.8349C130.823 16.8349 131.09 16.8158 131.358 16.7776V16.7489C131.11 16.768 130.88 16.7871 130.67 16.8062C130.46 16.8253 130.421 16.8349 130.555 16.8349ZM140.318 11.8741C140.7 10.5933 141.006 9.60883 141.235 8.92063C141.484 8.21332 141.723 7.58247 141.952 7.02809C142.181 6.47371 142.44 5.93845 142.726 5.4223C143.032 4.90615 143.357 4.43779 143.701 4.01723C144.064 3.57755 144.447 3.23345 144.848 2.98494C145.25 2.73642 145.67 2.61216 146.11 2.61216C146.55 2.61216 147.008 2.78421 147.486 3.12831C148.251 5.03997 148.719 6.32078 148.891 6.97074C149.121 7.92657 149.331 9.27429 149.522 11.0139C149.694 10.5742 149.885 10.1154 150.096 9.63751C150.325 9.14048 150.545 8.64344 150.755 8.14641C151.348 6.88472 151.721 5.92889 151.874 5.27893C152.294 3.94076 153.164 2.93714 154.483 2.26806C155.63 1.69457 156.701 1.51296 157.695 1.72324C158.096 1.79971 158.373 1.9622 158.526 2.21071C158.698 2.45923 158.698 2.7173 158.526 2.98494C158.373 3.25257 158.316 3.51064 158.354 3.75916C158.411 3.98856 158.459 4.26575 158.497 4.59073C158.555 5.47009 158.402 6.25387 158.039 6.94207C157.675 7.61115 157.303 8.45228 156.92 9.46546C156.538 10.4595 156.146 11.5205 155.745 12.6484C155.362 13.7762 154.97 14.9232 154.569 16.0894C154.168 17.2555 153.776 18.3164 153.393 19.2723C152.552 21.4707 151.864 22.6846 151.329 22.914C150.602 23.3537 150.067 23.6117 149.723 23.6882C149.283 23.7647 148.662 23.7647 147.859 23.6882C147.362 23.65 146.932 23.0096 146.569 21.767C146.358 21.0979 146.167 20.1707 145.995 18.9855C145.689 16.9209 145.479 15.7835 145.364 15.5732C144.6 18.0584 144.055 19.6259 143.73 20.2759C143.424 20.9259 143.185 21.356 143.013 21.5663C142.86 21.7765 142.669 22.0537 142.44 22.3978C142.191 23.086 141.598 23.5926 140.662 23.9176C139.859 24.2235 139.132 24.2713 138.482 24.061C137.775 23.8316 137.565 23.3919 137.852 22.7419C138.062 20.4479 138.884 16.8253 140.318 11.8741ZM158.953 11.8741C159.335 10.5933 159.641 9.60883 159.871 8.92063C160.119 8.21332 160.358 7.58247 160.587 7.02809C160.817 6.47371 161.075 5.93845 161.362 5.4223C161.667 4.90615 161.992 4.43779 162.337 4.01723C162.7 3.57755 163.082 3.23345 163.484 2.98494C163.885 2.73642 164.306 2.61216 164.745 2.61216C165.185 2.61216 165.644 2.78421 166.122 3.12831C166.886 5.03997 167.355 6.32078 167.527 6.97074C167.756 7.92657 167.966 9.27429 168.158 11.0139C168.33 10.5742 168.521 10.1154 168.731 9.63751C168.96 9.14048 169.18 8.64344 169.391 8.14641C169.983 6.88472 170.356 5.92889 170.509 5.27893C170.929 3.94076 171.799 2.93714 173.118 2.26806C174.265 1.69457 175.336 1.51296 176.33 1.72324C176.731 1.79971 177.009 1.9622 177.161 2.21071C177.334 2.45923 177.334 2.7173 177.161 2.98494C177.009 3.25257 176.951 3.51064 176.989 3.75916C177.047 3.98856 177.095 4.26575 177.133 4.59073C177.19 5.47009 177.037 6.25387 176.674 6.94207C176.311 7.61115 175.938 8.45228 175.556 9.46546C175.173 10.4595 174.781 11.5205 174.38 12.6484C173.998 13.7762 173.606 14.9232 173.204 16.0894C172.803 17.2555 172.411 18.3164 172.029 19.2723C171.188 21.4707 170.499 22.6846 169.964 22.914C169.238 23.3537 168.702 23.6117 168.358 23.6882C167.919 23.7647 167.297 23.7647 166.494 23.6882C165.997 23.65 165.567 23.0096 165.204 21.767C164.994 21.0979 164.803 20.1707 164.631 18.9855C164.325 16.9209 164.114 15.7835 164 15.5732C163.235 18.0584 162.69 19.6259 162.365 20.2759C162.059 20.9259 161.82 21.356 161.648 21.5663C161.495 21.7765 161.304 22.0537 161.075 22.3978C160.826 23.086 160.234 23.5926 159.297 23.9176C158.494 24.2235 157.768 24.2713 157.118 24.061C156.41 23.8316 156.2 23.3919 156.487 22.7419C156.697 20.4479 157.519 16.8253 158.953 11.8741ZM182.119 19.387C183.228 19.5017 184.05 19.559 184.585 19.559C185.139 19.559 185.971 19.4825 187.08 19.3296C187.424 19.4443 187.624 19.5877 187.682 19.7597C187.739 19.9318 187.758 20.1134 187.739 20.3046C187.72 20.4766 187.73 20.6487 187.768 20.8207C187.806 20.9928 187.988 21.1361 188.313 21.2508C188.485 21.3082 188.532 21.4802 188.456 21.767C188.399 22.0346 188.246 22.3309 187.997 22.6559C187.366 23.4779 186.621 24.0514 185.761 24.3764C184.384 24.7205 183.304 24.9212 182.52 24.9786C181.22 25.0741 179.806 25.0264 178.276 24.8352C176.594 24.5293 175.782 23.8316 175.839 22.7419C175.839 18.7274 176.718 14.6938 178.477 10.6411C179.051 9.32208 179.701 7.93613 180.427 6.48327C180.58 6.1774 180.666 5.83331 180.685 5.45097C180.723 5.06864 180.752 4.69587 180.771 4.33265C180.79 3.96944 180.848 3.64446 180.943 3.35771C181.039 3.07096 181.239 2.87024 181.545 2.75554C185.522 1.16886 188.666 0.557128 190.979 0.920343C191.782 0.93946 192.308 1.21665 192.557 1.75191C192.824 2.26806 192.853 2.85112 192.643 3.50108C192.451 4.15105 192.059 4.76278 191.467 5.33627C190.893 5.90977 190.167 6.26343 189.288 6.39724C188.16 6.72223 187.472 6.94207 187.223 7.05677C186.745 7.28617 186.401 7.59203 186.191 7.97436C185.923 8.39493 185.675 8.79638 185.445 9.17871C185.216 9.56104 185.053 9.97205 184.958 10.4117L184.843 11.0426C185.206 11.2146 185.646 11.272 186.162 11.2146C186.697 11.1382 187.185 11.0713 187.624 11.0139C188.083 10.9374 188.446 10.9279 188.714 10.9852C189.001 11.0426 189.058 11.3293 188.886 11.8455C188.733 12.3425 188.437 12.9064 187.997 13.5373C187.577 14.1681 186.974 14.6269 186.191 14.9137C185.694 15.0093 185.35 15.0857 185.158 15.1431C184.986 15.1813 184.853 15.21 184.757 15.2291C184.623 15.2482 184.241 15.2769 183.61 15.3151C182.711 16.8445 182.167 18.0297 181.975 18.8708C181.899 19.2149 181.947 19.387 182.119 19.387ZM196.267 23.086C196.095 23.8507 195.503 24.319 194.49 24.4911C193.553 24.6631 192.664 24.558 191.823 24.1757C190.886 23.7742 190.475 23.2103 190.59 22.4839C190.475 21.3751 191.058 18.9664 192.339 15.2578C194.251 9.69486 196.162 5.71861 198.074 3.32903C198.571 2.7173 198.992 2.32541 199.336 2.15336C199.699 1.9622 200.11 1.79015 200.569 1.63721C201.027 1.48428 201.505 1.34091 202.002 1.20709C202.996 0.93946 203.933 0.757852 204.813 0.662269C205.711 0.54757 206.514 0.652712 207.221 0.977694C207.929 1.28356 208.473 1.74236 208.856 2.35409C209.257 2.96582 209.506 3.69225 209.601 4.53338C209.697 5.35539 209.668 6.2252 209.515 7.14279C209.362 8.04127 209.085 8.95887 208.684 9.89558C208.282 10.8132 207.776 11.6734 207.164 12.4763C205.826 14.235 204.258 15.3725 202.461 15.8886L202.748 16.3761C202.996 16.7584 203.293 17.179 203.637 17.6378C204 18.0966 204.354 18.565 204.698 19.0429C205.061 19.5208 205.386 19.9987 205.673 20.4766C205.96 20.9545 206.17 21.4038 206.304 21.8243C206.61 22.761 206.371 23.4397 205.587 23.8602C204.956 24.2426 204.459 24.3382 204.096 24.147C203.943 24.0514 203.79 23.9272 203.637 23.7742C203.484 23.6404 203.274 23.5257 203.006 23.4301C201.878 23.7551 201.018 23.4684 200.425 22.5699C200.062 21.9964 199.785 21.4707 199.594 20.9928C199.403 20.5148 199.24 20.1134 199.106 19.7884C198.762 19.0811 198.37 18.4694 197.931 17.9532C197.72 18.4694 197.481 19.1289 197.214 19.9318C196.889 20.945 196.526 21.9964 196.124 23.086H196.267ZM202.06 6.39724C201.697 7.21926 201.448 7.79276 201.314 8.11774C201.047 8.7677 200.75 9.48457 200.425 10.2684C200.368 10.6889 200.32 10.9852 200.282 11.1573L200.683 10.7558L201.171 10.5264C201.515 10.3353 201.83 10.1632 202.117 10.0103C202.404 9.85735 202.662 9.66618 202.891 9.43678C203.331 8.9971 203.713 8.28023 204.038 7.28617C204.038 7.095 204.067 6.90383 204.124 6.71267C204.201 6.5215 204.249 6.33034 204.268 6.13917C204.344 5.71861 204.172 5.4223 203.752 5.25025C203.369 5.21202 202.891 5.52744 202.318 6.19652C202.203 6.33034 202.117 6.39724 202.06 6.39724Z" fill="black"/>
</svg>
